{
  "accessors": [
    {
      "bufferView": 2,
      "componentType": 5126,
      "count": 4740,
      "max": [
        1.476289987564087,
        1.3550000190734863,
        2.135999917984009
      ],
      "min": [
        -1.4809399843215942,
        -4.769740104675293,
        -2.080359935760498
      ],
      "type": "VEC3"
    },
    {
      "bufferView": 2,
      "byteOffset": 56880,
      "componentType": 5126,
      "count": 4740,
      "max": [
        0.9995722770690918,
        0.999316394329071,
        0.9997448921203613
      ],
      "min": [
        -0.9996913075447083,
        -0.9994080662727356,
        -0.999963104724884
      ],
      "type": "VEC3"
    },
    {
      "bufferView": 1,
      "componentType": 5126,
      "count": 4740,
      "max": [
        0.17353999614715576,
        0.3871000111103058
      ],
      "min": [
        0.05226999893784523,
        0.35495999455451965
      ],
      "type": "VEC2"
    },
    {
      "bufferView": 0,
      "componentType": 5125,
      "count": 4740,
      "type": "SCALAR"
    },
    {
      "bufferView": 2,
      "byteOffset": 113760,
      "componentType": 5126,
      "count": 3194,
      "max": [
        0.9903299808502197,
        1.4193099737167358,
        4.46196985244751
      ],
      "min": [
        -0.9854599833488464,
        -4.9910101890563965,
        -4.543970108032227
      ],
      "type": "VEC3"
    },
    {
      "bufferView": 2,
      "byteOffset": 152088,
      "componentType": 5126,
      "count": 3194,
      "max": [
        0.9988679885864258,
        0.9996841549873352,
        0.9995681047439575
      ],
      "min": [
        -0.9992683529853821,
        -0.9998329877853394,
        -0.9998232126235962
      ],
      "type": "VEC3"
    },
    {
      "bufferView": 1,
      "byteOffset": 37920,
      "componentType": 5126,
      "count": 3194,
      "max": [
        0.13516999781131744,
        0.4758400022983551
      ],
      "min": [
        0.10014999657869339,
        0.39972999691963196
      ],
      "type": "VEC2"
    },
    {
      "bufferView": 0,
      "byteOffset": 18960,
      "componentType": 5125,
      "count": 3462,
      "type": "SCALAR"
    },
    {
      "bufferView": 2,
      "byteOffset": 190416,
      "componentType": 5126,
      "count": 4559,
      "max": [
        0.7253999710083008,
        1.4803199768066406,
        0.18818999826908112
      ],
      "min": [
        -0.8115699887275696,
        -2.357909917831421,
        -1.899549961090088
      ],
      "type": "VEC3"
    },
    {
      "bufferView": 2,
      "byteOffset": 245124,
      "componentType": 5126,
      "count": 4559,
      "max": [
        0.9996747970581055,
        0.9999573826789856,
        0.9996017813682556
      ],
      "min": [
        -0.9992188215255737,
        -0.9989365339279175,
        -0.9996520280838013
      ],
      "type": "VEC3"
    },
    {
      "bufferView": 1,
      "byteOffset": 63472,
      "componentType": 5126,
      "count": 4559,
      "max": [
        0.744700014591217,
        0.23590999841690063
      ],
      "min": [
        0.6351799964904785,
        0.21624000370502472
      ],
      "type": "VEC2"
    },
    {
      "bufferView": 0,
      "byteOffset": 32808,
      "componentType": 5125,
      "count": 4608,
      "type": "SCALAR"
    },
    {
      "bufferView": 2,
      "byteOffset": 299832,
      "componentType": 5126,
      "count": 3420,
      "max": [
        3.47298002243042,
        6.055290222167969,
        8.258660316467285
      ],
      "min": [
        -3.479720115661621,
        -4.977330207824707,
        -8.279450416564941
      ],
      "type": "VEC3"
    },
    {
      "bufferView": 2,
      "byteOffset": 340872,
      "componentType": 5126,
      "count": 3420,
      "max": [
        0.9999282360076904,
        0.9997878670692444,
        0.9975925087928772
      ],
      "min": [
        -0.9997852444648743,
        -0.9964238405227661,
        -0.9998709559440613
      ],
      "type": "VEC3"
    },
    {
      "bufferView": 1,
      "byteOffset": 99944,
      "componentType": 5126,
      "count": 3420,
      "max": [
        0.2674500048160553,
        0.9429100155830383
      ],
      "min": [
        0.007340000011026859,
        0.3569999933242798
      ],
      "type": "VEC2"
    },
    {
      "bufferView": 0,
      "byteOffset": 51240,
      "componentType": 5125,
      "count": 3420,
      "type": "SCALAR"
    },
    {
      "bufferView": 2,
      "byteOffset": 381912,
      "componentType": 5126,
      "count": 13020,
      "max": [
        5.997409820556641,
        3.5885798931121826,
        4.462850093841553
      ],
      "min": [
        -1.3491300344467163,
        -3.235290050506592,
        -1.4629199504852295
      ],
      "type": "VEC3"
    },
    {
      "bufferView": 2,
      "byteOffset": 538152,
      "componentType": 5126,
      "count": 13020,
      "max": [
        0.9995253682136536,
        0.9998025298118591,
        0.9999679923057556
      ],
      "min": [
        -0.9993320107460022,
        -0.9996684789657593,
        -0.9997647404670715
      ],
      "type": "VEC3"
    },
    {
      "bufferView": 1,
      "byteOffset": 127304,
      "componentType": 5126,
      "count": 13020,
      "max": [
        0.8009700179100037,
        0.47574999928474426
      ],
      "min": [
        0.10287000238895416,
        0.1714099943637848
      ],
      "type": "VEC2"
    },
    {
      "bufferView": 0,
      "byteOffset": 64920,
      "componentType": 5125,
      "count": 13020,
      "type": "SCALAR"
    },
    {
      "bufferView": 2,
      "byteOffset": 694392,
      "componentType": 5126,
      "count": 4167,
      "max": [
        1.9971200227737427,
        5.589570045471191,
        2.643470048904419
      ],
      "min": [
        -1.8841700553894043,
        -1.2361400127410889,
        -5.756289958953857
      ],
      "type": "VEC3"
    },
    {
      "bufferView": 2,
      "byteOffset": 744396,
      "componentType": 5126,
      "count": 4167,
      "max": [
        1.0,
        0.9997974038124084,
        0.995617151260376
      ],
      "min": [
        -0.9990253448486328,
        -0.9997352361679077,
        -0.9996082186698914
      ],
      "type": "VEC3"
    },
    {
      "bufferView": 1,
      "byteOffset": 231464,
      "componentType": 5126,
      "count": 4167,
      "max": [
        0.12374000251293182,
        1.1235699653625488
      ],
      "min": [
        -0.365339994430542,
        0.4041700065135956
      ],
      "type": "VEC2"
    },
    {
      "bufferView": 0,
      "byteOffset": 117000,
      "componentType": 5125,
      "count": 4167,
      "type": "SCALAR"
    },
    {
      "bufferView": 2,
      "byteOffset": 794400,
      "componentType": 5126,
      "count": 1917,
      "max": [
        3.6086199283599854,
        1.2794899940490723,
        1.7550400495529175
      ],
      "min": [
        -3.1436100006103516,
        -0.9261500239372253,
        -4.732349872589111
      ],
      "type": "VEC3"
    },
    {
      "bufferView": 2,
      "byteOffset": 817404,
      "componentType": 5126,
      "count": 1917,
      "max": [
        0.9994954466819763,
        0.9983001351356506,
        0.9966568946838379
      ],
      "min": [
        -0.9995142817497253,
        -0.9957579970359802,
        -0.9992790222167969
      ],
      "type": "VEC3"
    },
    {
      "bufferView": 1,
      "byteOffset": 264800,
      "componentType": 5126,
      "count": 1917,
      "max": [
        0.13149000704288483,
        1.1235699653625488
      ],
      "min": [
        -0.357589989900589,
        0.4065000116825104
      ],
      "type": "VEC2"
    },
    {
      "bufferView": 0,
      "byteOffset": 133668,
      "componentType": 5125,
      "count": 1917,
      "type": "SCALAR"
    },
    {
      "bufferView": 2,
      "byteOffset": 840408,
      "componentType": 5126,
      "count": 1710,
      "max": [
        3.1513099670410156,
        -1.8054100275039673,
        6.382959842681885
      ],
      "min": [
        -2.134819984436035,
        -6.133739948272705,
        1.0318900346755981
      ],
      "type": "VEC3"
    },
    {
      "bufferView": 2,
      "byteOffset": 860928,
      "componentType": 5126,
      "count": 1710,
      "max": [
        0.9941727519035339,
        0.9913293123245239,
        0.9990348815917969
      ],
      "min": [
        -0.9811047911643982,
        -0.9857523441314697,
        -0.9992303848266602
      ],
      "type": "VEC3"
    },
    {
      "bufferView": 0,
      "byteOffset": 141336,
      "componentType": 5125,
      "count": 1710,
      "type": "SCALAR"
    },
    {
      "bufferView": 2,
      "byteOffset": 881448,
      "componentType": 5126,
      "count": 684,
      "max": [
        2.6812400817871094,
        0.9104700088500977,
        0.9451500177383423
      ],
      "min": [
        -0.9764599800109863,
        -2.3371200561523438,
        -0.9238399863243103
      ],
      "type": "VEC3"
    },
    {
      "bufferView": 2,
      "byteOffset": 889656,
      "componentType": 5126,
      "count": 684,
      "max": [
        0.9905480742454529,
        0.9964274764060974,
        0.9980701208114624
      ],
      "min": [
        -0.981820821762085,
        -0.9862655401229858,
        -0.9992631077766418
      ],
      "type": "VEC3"
    },
    {
      "bufferView": 0,
      "byteOffset": 148176,
      "componentType": 5125,
      "count": 684,
      "type": "SCALAR"
    },
    {
      "bufferView": 2,
      "byteOffset": 897864,
      "componentType": 5126,
      "count": 1710,
      "max": [
        2.6948299407958984,
        -2.6588199138641357,
        5.821720123291016
      ],
      "min": [
        -1.7519099712371826,
        -5.972219944000244,
        1.7924000024795532
      ],
      "type": "VEC3"
    },
    {
      "bufferView": 2,
      "byteOffset": 918384,
      "componentType": 5126,
      "count": 1710,
      "max": [
        0.9922692775726318,
        0.9932004809379578,
        0.996326208114624
      ],
      "min": [
        -0.987758219242096,
        -0.9857523441314697,
        -0.9959426522254944
      ],
      "type": "VEC3"
    },
    {
      "bufferView": 0,
      "byteOffset": 150912,
      "componentType": 5125,
      "count": 1710,
      "type": "SCALAR"
    },
    {
      "bufferView": 2,
      "byteOffset": 938904,
      "componentType": 5126,
      "count": 1368,
      "max": [
        3.1895699501037598,
        -2.0140299797058105,
        6.026989936828613
      ],
      "min": [
        -1.9030300378799438,
        -6.174139976501465,
        1.05377995967865
      ],
      "type": "VEC3"
    },
    {
      "bufferView": 2,
      "byteOffset": 955320,
      "componentType": 5126,
      "count": 1368,
      "max": [
        0.9941727519035339,
        0.9950021505355835,
        0.9990348815917969
      ],
      "min": [
        -0.9811047911643982,
        -0.9957439303398132,
        -0.9992303848266602
      ],
      "type": "VEC3"
    },
    {
      "bufferView": 0,
      "byteOffset": 157752,
      "componentType": 5125,
      "count": 1368,
      "type": "SCALAR"
    },
    {
      "bufferView": 2,
      "byteOffset": 971736,
      "componentType": 5126,
      "count": 1368,
      "max": [
        3.1504499912261963,
        -2.4358201026916504,
        6.099530220031738
      ],
      "min": [
        -1.8538000583648682,
        -6.22613000869751,
        1.3291200399398804
      ],
      "type": "VEC3"
    },
    {
      "bufferView": 2,
      "byteOffset": 988152,
      "componentType": 5126,
      "count": 1368,
      "max": [
        0.9922692775726318,
        0.9950021505355835,
        0.999661922454834
      ],
      "min": [
        -0.999519407749176,
        -0.999118447303772,
        -0.9972487092018127
      ],
      "type": "VEC3"
    },
    {
      "bufferView": 0,
      "byteOffset": 163224,
      "componentType": 5125,
      "count": 1368,
      "type": "SCALAR"
    }
  ],
  "asset": {
    "extras": {
      "author": "EdwinRC (https://sketchfab.com/Edwin3D)",
      "license": "CC-BY-4.0 (http://creativecommons.org/licenses/by/4.0/)",
      "source": "https://sketchfab.com/3d-models/low-poly-animals-4e5d0b71c2de49189dfa81476f4ae203",
      "title": "Low Poly Animals"
    },
    "generator": "Sketchfab-12.65.0",
    "version": "2.0"
  },
  "bufferViews": [
    {
      "buffer": 0,
      "byteLength": 168696,
      "name": "floatBufferViews",
      "target": 34963
    },
    {
      "buffer": 0,
      "byteLength": 280136,
      "byteOffset": 168696,
      "byteStride": 8,
      "name": "floatBufferViews",
      "target": 34962
    },
    {
      "buffer": 0,
      "byteLength": 1004568,
      "byteOffset": 448832,
      "byteStride": 12,
      "name": "floatBufferViews",
      "target": 34962
    }
  ],
  "buffers": [
    {
      "byteLength": 1453400,
      "uri": "scene.bin"
    }
  ],
  "images": [
    {
      "uri": "textures/Deer_baseColor.png"
    }
  ],
  "materials": [
    {
      "doubleSided": true,
      "name": "material",
      "pbrMetallicRoughness": {
        "baseColorFactor": [
          0.3423800766,
          0.3423800766,
          0.3423800766,
          1.0
        ],
        "metallicFactor": 0.0,
        "roughnessFactor": 0.6
      }
    },
    {
      "doubleSided": true,
      "name": "Deer",
      "pbrMetallicRoughness": {
        "baseColorTexture": {
          "index": 0
        },
        "metallicFactor": 0.0,
        "roughnessFactor": 0.6
      }
    },
    {
      "doubleSided": true,
      "name": "Scene",
      "pbrMetallicRoughness": {
        "baseColorTexture": {
          "index": 0
        },
        "metallicFactor": 0.0,
        "roughnessFactor": 0.6
      }
    },
    {
      "doubleSided": true,
      "name": "Ostrich",
      "pbrMetallicRoughness": {
        "baseColorTexture": {
          "index": 0
        },
        "metallicFactor": 0.0,
        "roughnessFactor": 0.6
      }
    },
    {
      "doubleSided": true,
      "name": "Rhino",
      "pbrMetallicRoughness": {
        "baseColorTexture": {
          "index": 0
        },
        "metallicFactor": 0.0,
        "roughnessFactor": 0.6
      }
    },
    {
      "doubleSided": true,
      "name": "Giraffe",
      "pbrMetallicRoughness": {
        "baseColorTexture": {
          "index": 0
        },
        "metallicFactor": 0.0,
        "roughnessFactor": 0.6
      }
    },
    {
      "doubleSided": true,
      "name": "Elephant",
      "pbrMetallicRoughness": {
        "baseColorTexture": {
          "index": 0
        },
        "metallicFactor": 0.0,
        "roughnessFactor": 0.6
      }
    }
  ],
  "meshes": [
    {
      "name": "Plane.003_0",
      "primitives": [
        {
          "attributes": {
            "NORMAL": 1,
            "POSITION": 0,
            "TEXCOORD_0": 2
          },
          "indices": 3,
          "material": 6,
          "mode": 4
        }
      ]
    },
    {
      "name": "Plane.002_0",
      "primitives": [
        {
          "attributes": {
            "NORMAL": 5,
            "POSITION": 4,
            "TEXCOORD_0": 6
          },
          "indices": 7,
          "material": 5,
          "mode": 4
        }
      ]
    },
    {
      "name": "Plane.001_0",
      "primitives": [
        {
          "attributes": {
            "NORMAL": 9,
            "POSITION": 8,
            "TEXCOORD_0": 10
          },
          "indices": 11,
          "material": 4,
          "mode": 4
        }
      ]
    },
    {
      "name": "Plane.005_0",
      "primitives": [
        {
          "attributes": {
            "NORMAL": 13,
            "POSITION": 12,
            "TEXCOORD_0": 14
          },
          "indices": 15,
          "material": 3,
          "mode": 4
        }
      ]
    },
    {
      "name": "Plane.008_0",
      "primitives": [
        {
          "attributes": {
            "NORMAL": 17,
            "POSITION": 16,
            "TEXCOORD_0": 18
          },
          "indices": 19,
          "material": 2,
          "mode": 4
        }
      ]
    },
    {
      "name": "Plane.014_0",
      "primitives": [
        {
          "attributes": {
            "NORMAL": 21,
            "POSITION": 20,
            "TEXCOORD_0": 22
          },
          "indices": 23,
          "material": 1,
          "mode": 4
        }
      ]
    },
    {
      "name": "Plane.010_0",
      "primitives": [
        {
          "attributes": {
            "NORMAL": 25,
            "POSITION": 24,
            "TEXCOORD_0": 26
          },
          "indices": 27,
          "material": 1,
          "mode": 4
        }
      ]
    },
    {
      "name": "Icosphere.001_0",
      "primitives": [
        {
          "attributes": {
            "NORMAL": 29,
            "POSITION": 28
          },
          "indices": 30,
          "material": 0,
          "mode": 4
        }
      ]
    },
    {
      "name": "Icosphere.000_0",
      "primitives": [
        {
          "attributes": {
            "NORMAL": 32,
            "POSITION": 31
          },
          "indices": 33,
          "material": 0,
          "mode": 4
        }
      ]
    },
    {
      "name": "Icosphere.002_0",
      "primitives": [
        {
          "attributes": {
            "NORMAL": 35,
            "POSITION": 34
          },
          "indices": 36,
          "material": 0,
          "mode": 4
        }
      ]
    },
    {
      "name": "Icosphere.003_0",
      "primitives": [
        {
          "attributes": {
            "NORMAL": 38,
            "POSITION": 37
          },
          "indices": 39,
          "material": 0,
          "mode": 4
        }
      ]
    },
    {
      "name": "Icosphere.004_0",
      "primitives": [
        {
          "attributes": {
            "NORMAL": 41,
            "POSITION": 40
          },
          "indices": 42,
          "material": 0,
          "mode": 4
        }
      ]
    }
  ],
  "nodes": [
    {
      "children": [
        1
      ],
      "matrix": [
        1.0,
        0.0,
        0.0,
        0.0,
        0.0,
        2.220446049250313e-16,
        -1.0,
        0.0,
        0.0,
        1.0,
        2.220446049250313e-16,
        0.0,
        0.0,
        0.0,
        0.0,
        1.0
      ],
      "name": "Sketchfab_model"
    },
    {
      "children": [
        2,
        4,
        6,
        8,
        10,
        12,
        14,
        16,
        18,
        20,
        22,
        24
      ],
      "name": "Root"
    },
    {
      "children": [
        3
      ],
      "matrix": [
        -2.7611200000000005,
        3.94082,
        0.026390000000000007,
        0.0,
        -3.9327799999999997,
        -2.7532900000000002,
        -0.3274600000000001,
        0.0,
        -0.25308,
        -0.20947000000000002,
        4.80069,
        0.0,
        -6.00007,
        -16.72592,
        11.74644,
        1.0
      ],
      "name": "Plane.003"
    },
    {
      "mesh": 0,
      "name": "Plane.003_0"
    },
    {
      "children": [
        5
      ],
      "matrix": [
        3.2325999999999997,
        -2.6232,
        0.0,
        0.0,
        2.6232,
        3.2325999999999997,
        0.0,
        0.0,
        0.0,
        0.0,
        4.163029999999999,
        0.0,
        -15.32798,
        22.942589999999996,
        21.75721,
        1.0
      ],
      "name": "Plane.002"
    },
    {
      "mesh": 1,
      "name": "Plane.002_0"
    },
    {
      "children": [
        7
      ],
      "matrix": [
        -5.076090000000001,
        4.504879999999999,
        -0.005970000000000001,
        0.0,
        -4.50472,
        -5.0759799999999995,
        -0.05051000000000001,
        0.0,
        -0.03799,
        -0.03382000000000001,
        6.7866100000000005,
        0.0,
        17.264499999999998,
        -21.41932,
        15.07915,
        1.0
      ],
      "name": "Plane.001"
    },
    {
      "mesh": 2,
      "name": "Plane.001_0"
    },
    {
      "children": [
        9
      ],
      "matrix": [
        0.51303,
        0.7428000000000001,
        0.0,
        0.0,
        -0.7428000000000001,
        0.51303,
        0.0,
        0.0,
        0.0,
        0.0,
        0.9027400000000001,
        0.0,
        -6.345260000000001,
        3.9067,
        9.87531,
        1.0
      ],
      "name": "Plane.005"
    },
    {
      "mesh": 3,
      "name": "Plane.005_0"
    },
    {
      "children": [
        11
      ],
      "matrix": [
        10.96101,
        8.624239999999999,
        -0.0,
        0.0,
        -8.624239999999999,
        10.96101,
        -0.0,
        0.0,
        -0.0,
        0.0,
        13.94709,
        0.0,
        -27.101810000000004,
        -26.66855,
        -1.26064,
        1.0
      ],
      "name": "Plane.008"
    },
    {
      "mesh": 4,
      "name": "Plane.008_0"
    },
    {
      "children": [
        13
      ],
      "matrix": [
        1.6202100000000002,
        0.8677100000000001,
        -0.04218000000000001,
        0.0,
        -0.8677500000000001,
        1.62071,
        0.009000000000000003,
        0.0,
        0.04143000000000001,
        0.011980000000000003,
        1.83791,
        0.0,
        21.18517,
        13.04679,
        13.30849,
        1.0
      ],
      "name": "Plane.014"
    },
    {
      "mesh": 5,
      "name": "Plane.014_0"
    },
    {
      "children": [
        15
      ],
      "matrix": [
        1.6202100000000002,
        0.8677100000000001,
        -0.04218000000000001,
        0.0,
        -0.8677500000000001,
        1.62071,
        0.009000000000000003,
        0.0,
        0.04143000000000001,
        0.011980000000000003,
        1.83791,
        0.0,
        13.349,
        5.86866,
        11.350700000000002,
        1.0
      ],
      "name": "Plane.010"
    },
    {
      "mesh": 6,
      "name": "Plane.010_0"
    },
    {
      "children": [
        17
      ],
      "matrix": [
        -1.9584599999999999,
        2.5445800000000003,
        3.6567,
        0.0,
        2.06129,
        -3.97703,
        3.8714799999999996,
        0.0,
        7.22732,
        4.479550000000001,
        0.7536400000000002,
        0.0,
        -16.463569999999997,
        -8.97141,
        2.2482200000000003,
        1.0
      ],
      "name": "Icosphere.001"
    },
    {
      "mesh": 7,
      "name": "Icosphere.001_0"
    },
    {
      "children": [
        19
      ],
      "matrix": [
        -1.9584599999999999,
        2.5445800000000003,
        3.6567,
        0.0,
        2.06129,
        -3.97703,
        3.8714799999999996,
        0.0,
        7.22732,
        4.479550000000001,
        0.7536400000000002,
        0.0,
        -16.463569999999997,
        -8.97141,
        2.2482200000000003,
        1.0
      ],
      "name": "Icosphere.000"
    },
    {
      "mesh": 8,
      "name": "Icosphere.000_0"
    },
    {
      "children": [
        21
      ],
      "matrix": [
        -1.9273799999999999,
        2.5042,
        3.5986599999999997,
        0.0,
        2.0285800000000003,
        -3.91392,
        3.8100399999999994,
        0.0,
        7.112629999999999,
        4.408460000000001,
        0.7416800000000001,
        0.0,
        -16.463569999999997,
        -63.81365999999999,
        2.2482200000000003,
        1.0
      ],
      "name": "Icosphere.002"
    },
    {
      "mesh": 9,
      "name": "Icosphere.002_0"
    },
    {
      "children": [
        23
      ],
      "matrix": [
        2.5445800000000003,
        1.9584599999999999,
        3.6567,
        0.0,
        -3.97703,
        -2.06129,
        3.8714799999999996,
        0.0,
        4.479550000000001,
        -7.22732,
        0.7536400000000002,
        0.0,
        -6.929200000000001,
        13.46146,
        2.4601800000000003,
        1.0
      ],
      "name": "Icosphere.003"
    },
    {
      "mesh": 10,
      "name": "Icosphere.003_0"
    },
    {
      "children": [
        25
      ],
      "matrix": [
        2.5445800000000003,
        1.9584599999999999,
        3.6567,
        0.0,
        -3.97703,
        -2.06129,
        3.8714799999999996,
        0.0,
        4.479550000000001,
        -7.22732,
        0.7536400000000002,
        0.0,
        -62.22878000000001,
        13.46146,
        2.2047800000000004,
        1.0
      ],
      "name": "Icosphere.004"
    },
    {
      "mesh": 11,
      "name": "Icosphere.004_0"
    }
  ],
  "samplers": [
    {
      "magFilter": 9729,
      "minFilter": 9987,
      "wrapS": 10497,
      "wrapT": 10497
    }
  ],
  "scene": 0,
  "scenes": [
    {
      "name": "Sketchfab_Scene",
      "nodes": [
        0
      ]
    }
  ],
  "textures": [
    {
      "sampler": 0,
      "source": 0
    }
  ]
}
